####
#
# OBJ File Generated by Meshlab
#
####
# Object butonn.obj
#
# Vertices: 156
# Faces: 148
#
####
vn 0.000000 -2.976332 0.000000
v 4.161635 -2.366980 0.205075 0.819608 0.819608 1.000000
vn 0.000000 -2.976184 0.000000
v 4.160438 -2.366980 0.200560 0.819608 0.819608 1.000000
vn 0.000000 -2.976287 0.000000
v 4.158514 -2.366980 0.196303 0.819608 0.819608 1.000000
vn 0.000000 -2.976203 0.000000
v 4.155916 -2.366980 0.192421 0.819608 0.819608 1.000000
vn 0.000000 -2.976221 0.000000
v 4.152714 -2.366980 0.189020 0.819608 0.819608 1.000000
vn 0.000000 -2.976314 0.000000
v 4.148995 -2.366980 0.186192 0.819608 0.819608 1.000000
vn 0.000000 -2.976239 0.000000
v 4.144863 -2.366980 0.184014 0.819608 0.819608 1.000000
vn 0.000000 -2.976218 0.000000
v 4.140428 -2.366980 0.182547 0.819608 0.819608 1.000000
vn 0.000000 -2.976254 0.000000
v 4.135812 -2.366980 0.181829 0.819608 0.819608 1.000000
vn 0.000000 -2.976235 0.000000
v 4.131141 -2.366980 0.181881 0.819608 0.819608 1.000000
vn 0.000000 -2.976262 0.000000
v 4.126542 -2.366980 0.182701 0.819608 0.819608 1.000000
vn 0.000000 -2.976204 0.000000
v 4.122141 -2.366980 0.184267 0.819608 0.819608 1.000000
vn 0.000000 -2.976315 0.000000
v 4.118058 -2.366980 0.186536 0.819608 0.819608 1.000000
vn 0.000000 -2.976258 0.000000
v 4.114403 -2.366980 0.189446 0.819608 0.819608 1.000000
vn 0.000000 -2.976133 0.000000
v 4.111278 -2.366980 0.192918 0.819608 0.819608 1.000000
vn 0.000000 -2.976295 0.000000
v 4.108767 -2.366980 0.196857 0.819608 0.819608 1.000000
vn 0.000000 -2.976249 0.000000
v 4.106938 -2.366980 0.201155 0.819608 0.819608 1.000000
vn 0.000000 -2.976327 0.000000
v 4.105842 -2.366980 0.205696 0.819608 0.819608 1.000000
vn 0.000000 -2.976132 0.000000
v 4.105507 -2.366980 0.210356 0.819608 0.819608 1.000000
vn 0.000000 -2.976332 0.000000
v 4.105945 -2.366980 0.215007 0.819608 0.819608 1.000000
vn 0.000000 -2.976184 0.000000
v 4.107142 -2.366980 0.219522 0.819608 0.819608 1.000000
vn 0.000000 -2.976286 0.000000
v 4.109066 -2.366980 0.223779 0.819608 0.819608 1.000000
vn 0.000000 -2.976203 0.000000
v 4.111664 -2.366980 0.227661 0.819608 0.819608 1.000000
vn 0.000000 -2.976221 0.000000
v 4.114866 -2.366980 0.231062 0.819608 0.819608 1.000000
vn 0.000000 -2.976311 0.000000
v 4.118585 -2.366980 0.233890 0.819608 0.819608 1.000000
vn 0.000000 -2.976245 0.000000
v 4.122717 -2.366980 0.236068 0.819608 0.819608 1.000000
vn 0.000000 -2.976215 0.000000
v 4.127152 -2.366980 0.237535 0.819608 0.819608 1.000000
vn 0.000000 -2.976254 0.000000
v 4.131768 -2.366980 0.238253 0.819608 0.819608 1.000000
vn 0.000000 -2.976235 0.000000
v 4.136439 -2.366980 0.238201 0.819608 0.819608 1.000000
vn 0.000000 -2.976262 0.000000
v 4.141038 -2.366980 0.237381 0.819608 0.819608 1.000000
vn 0.000000 -2.976202 0.000000
v 4.145439 -2.366980 0.235815 0.819608 0.819608 1.000000
vn 0.000000 -2.976320 0.000000
v 4.149522 -2.366980 0.233546 0.819608 0.819608 1.000000
vn 0.000000 -2.976255 0.000000
v 4.153177 -2.366980 0.230636 0.819608 0.819608 1.000000
vn 0.000000 -2.976133 0.000000
v 4.156302 -2.366980 0.227164 0.819608 0.819608 1.000000
vn 0.000000 -2.976294 0.000000
v 4.158813 -2.366980 0.223225 0.819608 0.819608 1.000000
vn 0.000000 -2.976251 0.000000
v 4.160642 -2.366980 0.218927 0.819608 0.819608 1.000000
vn 0.000000 -2.976326 0.000000
v 4.161738 -2.366980 0.214386 0.819608 0.819608 1.000000
vn 0.000000 -2.976132 0.000000
v 4.162073 -2.366980 0.209726 0.819608 0.819608 1.000000
vn 0.000000 2.976331 0.000000
v 4.161635 -2.346980 0.205075 0.819608 0.819608 1.000000
vn 0.000000 2.976183 0.000000
v 4.160438 -2.346980 0.200560 0.819608 0.819608 1.000000
vn 0.000000 2.976284 0.000000
v 4.158514 -2.346980 0.196303 0.819608 0.819608 1.000000
vn 0.000000 2.976206 0.000000
v 4.155916 -2.346980 0.192421 0.819608 0.819608 1.000000
vn 0.000000 2.976223 0.000000
v 4.152714 -2.346980 0.189020 0.819608 0.819608 1.000000
vn 0.000000 2.976308 0.000000
v 4.148995 -2.346980 0.186192 0.819608 0.819608 1.000000
vn 0.000000 2.976242 0.000000
v 4.144863 -2.346980 0.184014 0.819608 0.819608 1.000000
vn 0.000000 2.976221 0.000000
v 4.140428 -2.346980 0.182547 0.819608 0.819608 1.000000
vn 0.000000 2.976251 0.000000
v 4.135812 -2.346980 0.181829 0.819608 0.819608 1.000000
vn 0.000000 2.976232 0.000000
v 4.131141 -2.346980 0.181881 0.819608 0.819608 1.000000
vn 0.000000 2.976266 0.000000
v 4.126542 -2.346980 0.182701 0.819608 0.819608 1.000000
vn 0.000000 2.976204 0.000000
v 4.122141 -2.346980 0.184267 0.819608 0.819608 1.000000
vn 0.000000 2.976317 0.000000
v 4.118058 -2.346980 0.186536 0.819608 0.819608 1.000000
vn 0.000000 2.976255 0.000000
v 4.114403 -2.346980 0.189446 0.819608 0.819608 1.000000
vn 0.000000 2.976133 0.000000
v 4.111278 -2.346980 0.192918 0.819608 0.819608 1.000000
vn 0.000000 2.976294 0.000000
v 4.108767 -2.346980 0.196857 0.819608 0.819608 1.000000
vn 0.000000 2.976250 0.000000
v 4.106938 -2.346980 0.201155 0.819608 0.819608 1.000000
vn 0.000000 2.976326 0.000000
v 4.105842 -2.346980 0.205696 0.819608 0.819608 1.000000
vn 0.000000 2.976131 0.000000
v 4.105507 -2.346980 0.210356 0.819608 0.819608 1.000000
vn 0.000000 2.976331 0.000000
v 4.105945 -2.346980 0.215007 0.819608 0.819608 1.000000
vn 0.000000 2.976183 0.000000
v 4.107142 -2.346980 0.219522 0.819608 0.819608 1.000000
vn 0.000000 2.976284 0.000000
v 4.109066 -2.346980 0.223779 0.819608 0.819608 1.000000
vn 0.000000 2.976206 0.000000
v 4.111664 -2.346980 0.227661 0.819608 0.819608 1.000000
vn 0.000000 2.976223 0.000000
v 4.114866 -2.346980 0.231062 0.819608 0.819608 1.000000
vn 0.000000 2.976308 0.000000
v 4.118585 -2.346980 0.233890 0.819608 0.819608 1.000000
vn 0.000000 2.976242 0.000000
v 4.122717 -2.346980 0.236068 0.819608 0.819608 1.000000
vn 0.000000 2.976221 0.000000
v 4.127152 -2.346980 0.237535 0.819608 0.819608 1.000000
vn 0.000000 2.976251 0.000000
v 4.131768 -2.346980 0.238253 0.819608 0.819608 1.000000
vn 0.000000 2.976232 0.000000
v 4.136439 -2.346980 0.238201 0.819608 0.819608 1.000000
vn 0.000000 2.976266 0.000000
v 4.141038 -2.346980 0.237381 0.819608 0.819608 1.000000
vn 0.000000 2.976204 0.000000
v 4.145439 -2.346980 0.235815 0.819608 0.819608 1.000000
vn 0.000000 2.976317 0.000000
v 4.149522 -2.346980 0.233546 0.819608 0.819608 1.000000
vn 0.000000 2.976255 0.000000
v 4.153177 -2.346980 0.230636 0.819608 0.819608 1.000000
vn 0.000000 2.976133 0.000000
v 4.156302 -2.346980 0.227164 0.819608 0.819608 1.000000
vn 0.000000 2.976294 0.000000
v 4.158813 -2.346980 0.223225 0.819608 0.819608 1.000000
vn 0.000000 2.976250 0.000000
v 4.160642 -2.346980 0.218927 0.819608 0.819608 1.000000
vn 0.000000 2.976326 0.000000
v 4.161738 -2.346980 0.214386 0.819608 0.819608 1.000000
vn 0.000000 2.976131 0.000000
v 4.162073 -2.346980 0.209726 0.819608 0.819608 1.000000
vn -3.093700 0.000001 -0.481022
v 4.105842 -2.366980 0.205696 0.819608 0.819608 1.000000
vn -2.972364 0.000003 -0.983540
v 4.106938 -2.366980 0.201155 0.819608 0.819608 1.000000
vn -2.769984 0.000004 -1.459290
v 4.108767 -2.366980 0.196857 0.819608 0.819608 1.000000
vn -2.491938 0.000004 -1.895377
v 4.111278 -2.366980 0.192918 0.819608 0.819608 1.000000
vn -2.145878 0.000005 -2.279806
v 4.114403 -2.366980 0.189446 0.819608 0.819608 1.000000
vn -1.741477 0.000007 -2.601848
v 4.118058 -2.366980 0.186536 0.819608 0.819608 1.000000
vn -1.289513 0.000009 -2.852967
v 4.122141 -2.366980 0.184267 0.819608 0.819608 1.000000
vn -0.802309 0.000009 -3.026320
v 4.126542 -2.366980 0.182701 0.819608 0.819608 1.000000
vn -0.293261 0.000008 -3.117096
v 4.131141 -2.366980 0.181881 0.819608 0.819608 1.000000
vn 0.223800 0.000007 -3.122854
v 4.135812 -2.366980 0.181829 0.819608 0.819608 1.000000
vn 0.734781 0.000008 -3.043414
v 4.140428 -2.366980 0.182547 0.819608 0.819608 1.000000
vn 1.225737 0.000009 -2.880948
v 4.144863 -2.366980 0.184014 0.819608 0.819608 1.000000
vn 1.683130 0.000007 -2.639968
v 4.148995 -2.366980 0.186192 0.819608 0.819608 1.000000
vn 2.094640 0.000006 -2.326964
v 4.152714 -2.366980 0.189020 0.819608 0.819608 1.000000
vn 2.449141 0.000006 -1.950378
v 4.155916 -2.366980 0.192421 0.819608 0.819608 1.000000
vn 2.736770 0.000004 -1.520666
v 4.158514 -2.366980 0.196303 0.819608 0.819608 1.000000
vn 2.949736 0.000002 -1.049433
v 4.160438 -2.366980 0.200560 0.819608 0.819608 1.000000
vn 3.082248 0.000001 -0.549652
v 4.161635 -2.366980 0.205075 0.819608 0.819608 1.000000
vn 1.563887 0.000000 -0.147192
v 4.162073 -2.366980 0.209726 0.819608 0.819608 1.000000
vn 1.563883 0.000000 -0.147192
v 4.162073 -2.346980 0.209726 0.819608 0.819608 1.000000
vn 3.082248 0.000001 -0.549651
v 4.161635 -2.346980 0.205075 0.819608 0.819608 1.000000
vn 2.949736 0.000002 -1.049432
v 4.160438 -2.346980 0.200560 0.819608 0.819608 1.000000
vn 2.736769 0.000003 -1.520667
v 4.158514 -2.346980 0.196303 0.819608 0.819608 1.000000
vn 2.449140 0.000005 -1.950380
v 4.155916 -2.346980 0.192421 0.819608 0.819608 1.000000
vn 2.094643 0.000007 -2.326962
v 4.152714 -2.346980 0.189020 0.819608 0.819608 1.000000
vn 1.683130 0.000007 -2.639968
v 4.148995 -2.346980 0.186192 0.819608 0.819608 1.000000
vn 1.225735 0.000008 -2.880950
v 4.144863 -2.346980 0.184014 0.819608 0.819608 1.000000
vn 0.734785 0.000009 -3.043415
v 4.140428 -2.346980 0.182547 0.819608 0.819608 1.000000
vn 0.223804 0.000008 -3.122854
v 4.135812 -2.346980 0.181829 0.819608 0.819608 1.000000
vn -0.293266 0.000007 -3.117095
v 4.131141 -2.346980 0.181881 0.819608 0.819608 1.000000
vn -0.802314 0.000008 -3.026320
v 4.126542 -2.346980 0.182701 0.819608 0.819608 1.000000
vn -1.289514 0.000009 -2.852968
v 4.122141 -2.346980 0.184267 0.819608 0.819608 1.000000
vn -1.741475 0.000008 -2.601850
v 4.118058 -2.346980 0.186536 0.819608 0.819608 1.000000
vn -2.145876 0.000006 -2.279809
v 4.114403 -2.346980 0.189446 0.819608 0.819608 1.000000
vn -2.491938 0.000004 -1.895377
v 4.111278 -2.346980 0.192918 0.819608 0.819608 1.000000
vn -2.769985 0.000003 -1.459288
v 4.108767 -2.346980 0.196857 0.819608 0.819608 1.000000
vn -2.972365 0.000003 -0.983538
v 4.106938 -2.346980 0.201155 0.819608 0.819608 1.000000
vn -3.093701 0.000001 -0.481021
v 4.105842 -2.346980 0.205696 0.819608 0.819608 1.000000
vn -1.566767 0.000000 -0.112398
v 4.105507 -2.346980 0.210356 0.819608 0.819608 1.000000
vn -1.566773 0.000000 -0.112398
v 4.105507 -2.366980 0.210356 0.819608 0.819608 1.000000
vn 3.093700 -0.000001 0.481023
v 4.161738 -2.366980 0.214386 0.819608 0.819608 1.000000
vn 2.972366 -0.000003 0.983539
v 4.160642 -2.366980 0.218927 0.819608 0.819608 1.000000
vn 2.769985 -0.000004 1.459288
v 4.158813 -2.366980 0.223225 0.819608 0.819608 1.000000
vn 2.491938 -0.000006 1.895377
v 4.156302 -2.366980 0.227164 0.819608 0.819608 1.000000
vn 2.145875 -0.000007 2.279809
v 4.153177 -2.366980 0.230636 0.819608 0.819608 1.000000
vn 1.741479 -0.000008 2.601848
v 4.149522 -2.366980 0.233546 0.819608 0.819608 1.000000
vn 1.289517 -0.000007 2.852965
v 4.145439 -2.366980 0.235815 0.819608 0.819608 1.000000
vn 0.802310 -0.000007 3.026320
v 4.141038 -2.366980 0.237381 0.819608 0.819608 1.000000
vn 0.293262 -0.000008 3.117096
v 4.136439 -2.366980 0.238201 0.819608 0.819608 1.000000
vn -0.223800 -0.000009 3.122855
v 4.131768 -2.366980 0.238253 0.819608 0.819608 1.000000
vn -0.734786 -0.000008 3.043414
v 4.127152 -2.366980 0.237535 0.819608 0.819608 1.000000
vn -1.225738 -0.000008 2.880949
v 4.122717 -2.366980 0.236068 0.819608 0.819608 1.000000
vn -1.683127 -0.000008 2.639970
v 4.118585 -2.366980 0.233890 0.819608 0.819608 1.000000
vn -2.094640 -0.000006 2.326964
v 4.114866 -2.366980 0.231062 0.819608 0.819608 1.000000
vn -2.449141 -0.000004 1.950378
v 4.111664 -2.366980 0.227661 0.819608 0.819608 1.000000
vn -2.736770 -0.000004 1.520665
v 4.109066 -2.366980 0.223779 0.819608 0.819608 1.000000
vn -2.949736 -0.000003 1.049432
v 4.107142 -2.366980 0.219522 0.819608 0.819608 1.000000
vn -3.082249 -0.000002 0.549651
v 4.105945 -2.366980 0.215007 0.819608 0.819608 1.000000
vn -1.563882 -0.000000 0.147192
v 4.105507 -2.366980 0.210356 0.819608 0.819608 1.000000
vn -1.563888 -0.000000 0.147192
v 4.105507 -2.346980 0.210356 0.819608 0.819608 1.000000
vn -3.082248 -0.000002 0.549652
v 4.105945 -2.346980 0.215007 0.819608 0.819608 1.000000
vn -2.949736 -0.000003 1.049433
v 4.107142 -2.346980 0.219522 0.819608 0.819608 1.000000
vn -2.736768 -0.000005 1.520668
v 4.109066 -2.346980 0.223779 0.819608 0.819608 1.000000
vn -2.449139 -0.000005 1.950380
v 4.111664 -2.346980 0.227661 0.819608 0.819608 1.000000
vn -2.094642 -0.000005 2.326962
v 4.114866 -2.346980 0.231062 0.819608 0.819608 1.000000
vn -1.683129 -0.000007 2.639967
v 4.118585 -2.346980 0.233890 0.819608 0.819608 1.000000
vn -1.225734 -0.000009 2.880950
v 4.122717 -2.346980 0.236068 0.819608 0.819608 1.000000
vn -0.734786 -0.000008 3.043414
v 4.127152 -2.346980 0.237535 0.819608 0.819608 1.000000
vn -0.223804 -0.000008 3.122853
v 4.131768 -2.346980 0.238253 0.819608 0.819608 1.000000
vn 0.293266 -0.000009 3.117095
v 4.136439 -2.346980 0.238201 0.819608 0.819608 1.000000
vn 0.802314 -0.000008 3.026319
v 4.141038 -2.346980 0.237381 0.819608 0.819608 1.000000
vn 1.289513 -0.000006 2.852967
v 4.145439 -2.346980 0.235815 0.819608 0.819608 1.000000
vn 1.741475 -0.000007 2.601850
v 4.149522 -2.346980 0.233546 0.819608 0.819608 1.000000
vn 2.145875 -0.000007 2.279809
v 4.153177 -2.346980 0.230636 0.819608 0.819608 1.000000
vn 2.491937 -0.000006 1.895377
v 4.156302 -2.346980 0.227164 0.819608 0.819608 1.000000
vn 2.769985 -0.000004 1.459289
v 4.158813 -2.346980 0.223225 0.819608 0.819608 1.000000
vn 2.972365 -0.000003 0.983538
v 4.160642 -2.346980 0.218927 0.819608 0.819608 1.000000
vn 3.093700 -0.000001 0.481022
v 4.161738 -2.346980 0.214386 0.819608 0.819608 1.000000
vn 1.566772 -0.000000 0.112398
v 4.162073 -2.346980 0.209726 0.819608 0.819608 1.000000
vn 1.566768 -0.000000 0.112398
v 4.162073 -2.366980 0.209726 0.819608 0.819608 1.000000
# 156 vertices, 0 vertices normals

f 29//29 28//28 30//30
f 28//28 27//27 30//30
f 30//30 27//27 31//31
f 27//27 26//26 31//31
f 31//31 26//26 32//32
f 26//26 25//25 32//32
f 32//32 25//25 33//33
f 25//25 24//24 33//33
f 33//33 24//24 34//34
f 24//24 23//23 34//34
f 34//34 23//23 35//35
f 23//23 22//22 35//35
f 35//35 22//22 36//36
f 22//22 21//21 36//36
f 36//36 21//21 37//37
f 21//21 20//20 37//37
f 37//37 20//20 38//38
f 20//20 19//19 38//38
f 38//38 19//19 1//1
f 19//19 18//18 1//1
f 1//1 18//18 2//2
f 18//18 17//17 2//2
f 2//2 17//17 3//3
f 17//17 16//16 3//3
f 3//3 16//16 4//4
f 16//16 15//15 4//4
f 4//4 15//15 5//5
f 15//15 14//14 5//5
f 5//5 14//14 6//6
f 14//14 13//13 6//6
f 6//6 13//13 7//7
f 13//13 12//12 7//7
f 7//7 12//12 8//8
f 12//12 11//11 8//8
f 8//8 11//11 9//9
f 11//11 10//10 9//9
f 76//76 58//58 75//75
f 58//58 59//59 75//75
f 75//75 59//59 74//74
f 59//59 60//60 74//74
f 74//74 60//60 73//73
f 60//60 61//61 73//73
f 73//73 61//61 72//72
f 61//61 62//62 72//72
f 72//72 62//62 71//71
f 62//62 63//63 71//71
f 71//71 63//63 70//70
f 63//63 64//64 70//70
f 70//70 64//64 69//69
f 64//64 65//65 69//69
f 69//69 65//65 68//68
f 65//65 66//66 68//68
f 68//68 66//66 67//67
f 58//58 76//76 57//57
f 76//76 39//39 57//57
f 57//57 39//39 56//56
f 39//39 40//40 56//56
f 56//56 40//40 55//55
f 40//40 41//41 55//55
f 55//55 41//41 54//54
f 41//41 42//42 54//54
f 54//54 42//42 53//53
f 42//42 43//43 53//53
f 53//53 43//43 52//52
f 43//43 44//44 52//52
f 52//52 44//44 51//51
f 44//44 45//45 51//51
f 51//51 45//45 50//50
f 45//45 46//46 50//50
f 50//50 46//46 49//49
f 46//46 47//47 49//49
f 49//49 47//47 48//48
f 96//96 95//95 97//97
f 95//95 94//94 97//97
f 97//97 94//94 98//98
f 94//94 93//93 98//98
f 98//98 93//93 99//99
f 93//93 92//92 99//99
f 99//99 92//92 100//100
f 92//92 91//91 100//100
f 100//100 91//91 101//101
f 91//91 90//90 101//101
f 101//101 90//90 102//102
f 90//90 89//89 102//102
f 102//102 89//89 103//103
f 89//89 88//88 103//103
f 103//103 88//88 104//104
f 88//88 87//87 104//104
f 104//104 87//87 105//105
f 87//87 86//86 105//105
f 105//105 86//86 106//106
f 86//86 85//85 106//106
f 106//106 85//85 107//107
f 85//85 84//84 107//107
f 107//107 84//84 108//108
f 84//84 83//83 108//108
f 108//108 83//83 109//109
f 83//83 82//82 109//109
f 109//109 82//82 110//110
f 82//82 81//81 110//110
f 110//110 81//81 111//111
f 81//81 80//80 111//111
f 111//111 80//80 112//112
f 80//80 79//79 112//112
f 112//112 79//79 113//113
f 79//79 78//78 113//113
f 113//113 78//78 114//114
f 78//78 77//77 114//114
f 114//114 77//77 115//115
f 77//77 116//116 115//115
f 136//136 135//135 137//137
f 135//135 134//134 137//137
f 137//137 134//134 138//138
f 134//134 133//133 138//138
f 138//138 133//133 139//139
f 133//133 132//132 139//139
f 139//139 132//132 140//140
f 132//132 131//131 140//140
f 140//140 131//131 141//141
f 131//131 130//130 141//141
f 141//141 130//130 142//142
f 130//130 129//129 142//142
f 142//142 129//129 143//143
f 129//129 128//128 143//143
f 143//143 128//128 144//144
f 128//128 127//127 144//144
f 144//144 127//127 145//145
f 127//127 126//126 145//145
f 145//145 126//126 146//146
f 126//126 125//125 146//146
f 146//146 125//125 147//147
f 125//125 124//124 147//147
f 147//147 124//124 148//148
f 124//124 123//123 148//148
f 148//148 123//123 149//149
f 123//123 122//122 149//149
f 149//149 122//122 150//150
f 122//122 121//121 150//150
f 150//150 121//121 151//151
f 121//121 120//120 151//151
f 151//151 120//120 152//152
f 120//120 119//119 152//152
f 152//152 119//119 153//153
f 119//119 118//118 153//153
f 153//153 118//118 154//154
f 118//118 117//117 154//154
f 154//154 117//117 155//155
f 117//117 156//156 155//155
# 148 faces, 0 coords texture

# End of File
