####
#
# OBJ File Generated by Meshlab
#
####
# Object translatiee.obj
#
# Vertices: 124
# Faces: 108
#
####
vn 0.000000 0.000000 -3.402926
v 4.228489 -1.241892 1.889520 0.819608 0.819608 1.000000
vn 0.000000 0.000000 -3.403638
v 4.227490 -1.239480 1.889520 0.819608 0.819608 1.000000
vn 0.000000 0.000000 -3.403384
v 4.225901 -1.237409 1.889520 0.819608 0.819608 1.000000
vn 0.000000 0.000000 -3.403371
v 4.223830 -1.235820 1.889520 0.819608 0.819608 1.000000
vn 0.000000 0.000000 -3.403260
v 4.221418 -1.234821 1.889520 0.819608 0.819608 1.000000
vn 0.000000 0.000000 -3.403648
v 4.218830 -1.234480 1.889520 0.819608 0.819608 1.000000
vn 0.000000 0.000000 -3.403168
v 4.216242 -1.234821 1.889520 0.819608 0.819608 1.000000
vn 0.000000 0.000000 -3.403441
v 4.213830 -1.235820 1.889520 0.819608 0.819608 1.000000
vn 0.000000 0.000000 -3.403529
v 4.211759 -1.237409 1.889520 0.819608 0.819608 1.000000
vn 0.000000 0.000000 -3.403325
v 4.210170 -1.239480 1.889520 0.819608 0.819608 1.000000
vn 0.000000 0.000000 -3.403276
v 4.209171 -1.241892 1.889520 0.819608 0.819608 1.000000
vn 0.000000 0.000000 -3.403557
v 4.208830 -1.244480 1.889520 0.819608 0.819608 1.000000
vn 0.000000 0.000000 -3.403276
v 4.209171 -1.247068 1.889520 0.819608 0.819608 1.000000
vn 0.000000 0.000000 -3.403352
v 4.210170 -1.249480 1.889520 0.819608 0.819608 1.000000
vn 0.000000 0.000000 -3.403465
v 4.211759 -1.251551 1.889520 0.819608 0.819608 1.000000
vn 0.000000 0.000000 -3.403477
v 4.213830 -1.253140 1.889520 0.819608 0.819608 1.000000
vn 0.000000 0.000000 -3.403167
v 4.216242 -1.254139 1.889520 0.819608 0.819608 1.000000
vn 0.000000 0.000000 -3.403647
v 4.218830 -1.254480 1.889520 0.819608 0.819608 1.000000
vn 0.000000 0.000000 -3.403261
v 4.221418 -1.254139 1.889520 0.819608 0.819608 1.000000
vn 0.000000 0.000000 -3.403408
v 4.223830 -1.253140 1.889520 0.819608 0.819608 1.000000
vn 0.000000 0.000000 -3.403320
v 4.225901 -1.251551 1.889520 0.819608 0.819608 1.000000
vn 0.000000 0.000000 -3.403666
v 4.227490 -1.249480 1.889520 0.819608 0.819608 1.000000
vn 0.000000 0.000000 -3.402927
v 4.228489 -1.247068 1.889520 0.819608 0.819608 1.000000
vn 0.000000 0.000000 -3.403919
v 4.228830 -1.244480 1.889520 0.819608 0.819608 1.000000
vn 0.000000 0.000000 -1.570529
v 4.718830 -1.144480 1.889520 0.819608 0.819608 1.000000
vn 0.000000 0.000000 -1.570744
v 4.718830 -1.344480 1.889520 0.819608 0.819608 1.000000
vn 0.000000 0.000000 -1.570833
v 3.718830 -1.344480 1.889520 0.819608 0.819608 1.000000
vn 0.000000 0.000000 -1.570796
v 3.718830 -1.144480 1.889520 0.819608 0.819608 1.000000
vn -3.008589 0.806229 0.000000
v 4.209171 -1.241892 1.839520 0.819608 0.819608 1.000000
vn -2.697540 1.557185 0.000000
v 4.210170 -1.239480 1.839520 0.819608 0.819608 1.000000
vn -2.202487 2.202347 0.000000
v 4.211759 -1.237409 1.839520 0.819608 0.819608 1.000000
vn -1.557188 2.697509 0.000000
v 4.213830 -1.235820 1.839520 0.819608 0.819608 1.000000
vn -0.806242 3.008608 0.000000
v 4.216242 -1.234821 1.839520 0.819608 0.819608 1.000000
vn -0.000037 3.114664 0.000000
v 4.218830 -1.234480 1.839520 0.819608 0.819608 1.000000
vn 0.806306 3.008571 0.000000
v 4.221418 -1.234821 1.839520 0.819608 0.819608 1.000000
vn 1.557290 2.697467 0.000000
v 4.223830 -1.235820 1.839520 0.819608 0.819608 1.000000
vn 2.202349 2.202527 0.000000
v 4.225901 -1.237409 1.839520 0.819608 0.819608 1.000000
vn 2.697501 1.557120 0.000000
v 4.227490 -1.239480 1.839520 0.819608 0.819608 1.000000
vn 3.008651 0.806265 0.000000
v 4.228489 -1.241892 1.839520 0.819608 0.819608 1.000000
vn 1.557304 0.205441 0.000000
v 4.228830 -1.244480 1.839520 0.819608 0.819608 1.000000
vn 1.557304 0.205441 0.000000
v 4.228830 -1.244480 1.889520 0.819608 0.819608 1.000000
vn 3.008652 0.806266 0.000000
v 4.228489 -1.241892 1.889520 0.819608 0.819608 1.000000
vn 2.697502 1.557120 0.000000
v 4.227490 -1.239480 1.889520 0.819608 0.819608 1.000000
vn 2.202348 2.202527 0.000000
v 4.225901 -1.237409 1.889520 0.819608 0.819608 1.000000
vn 1.557290 2.697467 0.000000
v 4.223830 -1.235820 1.889520 0.819608 0.819608 1.000000
vn 0.806305 3.008570 0.000000
v 4.221418 -1.234821 1.889520 0.819608 0.819608 1.000000
vn -0.000037 3.114665 0.000000
v 4.218830 -1.234480 1.889520 0.819608 0.819608 1.000000
vn -0.806242 3.008607 0.000000
v 4.216242 -1.234821 1.889520 0.819608 0.819608 1.000000
vn -1.557189 2.697510 0.000000
v 4.213830 -1.235820 1.889520 0.819608 0.819608 1.000000
vn -2.202487 2.202346 0.000000
v 4.211759 -1.237409 1.889520 0.819608 0.819608 1.000000
vn -2.697539 1.557185 0.000000
v 4.210170 -1.239480 1.889520 0.819608 0.819608 1.000000
vn -3.008588 0.806229 0.000000
v 4.209171 -1.241892 1.889520 0.819608 0.819608 1.000000
vn -1.557342 0.205159 0.000000
v 4.208830 -1.244480 1.889520 0.819608 0.819608 1.000000
vn -1.557341 0.205159 0.000000
v 4.208830 -1.244480 1.839520 0.819608 0.819608 1.000000
vn 3.008652 -0.806266 0.000000
v 4.228489 -1.247068 1.839520 0.819608 0.819608 1.000000
vn 2.697475 -1.557155 0.000000
v 4.227490 -1.249480 1.839520 0.819608 0.819608 1.000000
vn 2.202367 -2.202527 0.000000
v 4.225901 -1.251551 1.839520 0.819608 0.819608 1.000000
vn 1.557335 -2.697432 0.000000
v 4.223830 -1.253140 1.839520 0.819608 0.819608 1.000000
vn 0.806306 -3.008570 0.000000
v 4.221418 -1.254139 1.839520 0.819608 0.819608 1.000000
vn -0.000037 -3.114665 0.000000
v 4.218830 -1.254480 1.839520 0.819608 0.819608 1.000000
vn -0.806242 -3.008607 0.000000
v 4.216242 -1.254139 1.839520 0.819608 0.819608 1.000000
vn -1.557234 -2.697475 0.000000
v 4.213830 -1.253140 1.839520 0.819608 0.819608 1.000000
vn -2.202506 -2.202346 0.000000
v 4.211759 -1.251551 1.839520 0.819608 0.819608 1.000000
vn -2.697512 -1.557219 0.000000
v 4.210170 -1.249480 1.839520 0.819608 0.819608 1.000000
vn -3.008588 -0.806229 0.000000
v 4.209171 -1.247068 1.839520 0.819608 0.819608 1.000000
vn -1.557342 -0.205159 0.000000
v 4.208830 -1.244480 1.839520 0.819608 0.819608 1.000000
vn -1.557341 -0.205159 0.000000
v 4.208830 -1.244480 1.889520 0.819608 0.819608 1.000000
vn -3.008589 -0.806229 0.000000
v 4.209171 -1.247068 1.889520 0.819608 0.819608 1.000000
vn -2.697513 -1.557220 0.000000
v 4.210170 -1.249480 1.889520 0.819608 0.819608 1.000000
vn -2.202506 -2.202346 0.000000
v 4.211759 -1.251551 1.889520 0.819608 0.819608 1.000000
vn -1.557233 -2.697474 0.000000
v 4.213830 -1.253140 1.889520 0.819608 0.819608 1.000000
vn -0.806242 -3.008608 0.000000
v 4.216242 -1.254139 1.889520 0.819608 0.819608 1.000000
vn -0.000037 -3.114664 0.000000
v 4.218830 -1.254480 1.889520 0.819608 0.819608 1.000000
vn 0.806306 -3.008571 0.000000
v 4.221418 -1.254139 1.889520 0.819608 0.819608 1.000000
vn 1.557335 -2.697432 0.000000
v 4.223830 -1.253140 1.889520 0.819608 0.819608 1.000000
vn 2.202367 -2.202527 0.000000
v 4.225901 -1.251551 1.889520 0.819608 0.819608 1.000000
vn 2.697475 -1.557155 0.000000
v 4.227490 -1.249480 1.889520 0.819608 0.819608 1.000000
vn 3.008651 -0.806265 0.000000
v 4.228489 -1.247068 1.889520 0.819608 0.819608 1.000000
vn 1.557304 -0.205441 0.000000
v 4.228830 -1.244480 1.889520 0.819608 0.819608 1.000000
vn 1.557304 -0.205441 0.000000
v 4.228830 -1.244480 1.839520 0.819608 0.819608 1.000000
vn 0.000000 0.000000 -2.880259
v 4.228489 -1.241892 1.839520 0.819608 0.819608 1.000000
vn 0.000000 0.000000 -2.879547
v 4.227490 -1.239480 1.839520 0.819608 0.819608 1.000000
vn 0.000000 0.000000 -2.879802
v 4.225901 -1.237409 1.839520 0.819608 0.819608 1.000000
vn 0.000000 0.000000 -2.879814
v 4.223830 -1.235820 1.839520 0.819608 0.819608 1.000000
vn 0.000000 0.000000 -2.879925
v 4.221418 -1.234821 1.839520 0.819608 0.819608 1.000000
vn 0.000000 0.000000 -2.879538
v 4.218830 -1.234480 1.839520 0.819608 0.819608 1.000000
vn 0.000000 0.000000 -2.880019
v 4.216242 -1.234821 1.839520 0.819608 0.819608 1.000000
vn 0.000000 0.000000 -2.879744
v 4.213830 -1.235820 1.839520 0.819608 0.819608 1.000000
vn 0.000000 0.000000 -2.879656
v 4.211759 -1.237409 1.839520 0.819608 0.819608 1.000000
vn 0.000000 0.000000 -2.879861
v 4.210170 -1.239480 1.839520 0.819608 0.819608 1.000000
vn 0.000000 0.000000 -2.879909
v 4.209171 -1.241892 1.839520 0.819608 0.819608 1.000000
vn 0.000000 0.000000 -2.879629
v 4.208830 -1.244480 1.839520 0.819608 0.819608 1.000000
vn 0.000000 0.000000 -2.879909
v 4.209171 -1.247068 1.839520 0.819608 0.819608 1.000000
vn 0.000000 0.000000 -2.879833
v 4.210170 -1.249480 1.839520 0.819608 0.819608 1.000000
vn 0.000000 0.000000 -2.879721
v 4.211759 -1.251551 1.839520 0.819608 0.819608 1.000000
vn 0.000000 0.000000 -2.879708
v 4.213830 -1.253140 1.839520 0.819608 0.819608 1.000000
vn 0.000000 0.000000 -2.880018
v 4.216242 -1.254139 1.839520 0.819608 0.819608 1.000000
vn 0.000000 0.000000 -2.879538
v 4.218830 -1.254480 1.839520 0.819608 0.819608 1.000000
vn 0.000000 0.000000 -2.879925
v 4.221418 -1.254139 1.839520 0.819608 0.819608 1.000000
vn 0.000000 0.000000 -2.879778
v 4.223830 -1.253140 1.839520 0.819608 0.819608 1.000000
vn 0.000000 0.000000 -2.879865
v 4.225901 -1.251551 1.839520 0.819608 0.819608 1.000000
vn 0.000000 0.000000 -2.879519
v 4.227490 -1.249480 1.839520 0.819608 0.819608 1.000000
vn 0.000000 0.000000 -2.880259
v 4.228489 -1.247068 1.839520 0.819608 0.819608 1.000000
vn 0.000000 0.000000 -2.879266
v 4.228830 -1.244480 1.839520 0.819608 0.819608 1.000000
vn 0.000000 0.000000 1.570796
v 3.718830 -1.344480 1.989520 0.819608 0.819608 1.000000
vn 0.000000 0.000000 1.570796
v 4.718830 -1.344480 1.989520 0.819608 0.819608 1.000000
vn 0.000000 0.000000 1.570796
v 3.718830 -1.144480 1.989520 0.819608 0.819608 1.000000
vn 0.000000 0.000000 1.570796
v 4.718830 -1.144480 1.989520 0.819608 0.819608 1.000000
vn 0.000000 1.570796 0.000000
v 3.718830 -1.144480 1.889520 0.819608 0.819608 1.000000
vn 0.000000 1.570797 0.000000
v 3.718830 -1.144480 1.989520 0.819608 0.819608 1.000000
vn 0.000000 1.570797 0.000000
v 4.718830 -1.144480 1.889520 0.819608 0.819608 1.000000
vn 0.000000 1.570796 0.000000
v 4.718830 -1.144480 1.989520 0.819608 0.819608 1.000000
vn 1.570796 0.000000 0.000000
v 4.718830 -1.144480 1.889520 0.819608 0.819608 1.000000
vn 1.570796 0.000000 0.000000
v 4.718830 -1.144480 1.989520 0.819608 0.819608 1.000000
vn 1.570796 0.000000 0.000000
v 4.718830 -1.344480 1.889520 0.819608 0.819608 1.000000
vn 1.570796 0.000000 0.000000
v 4.718830 -1.344480 1.989520 0.819608 0.819608 1.000000
vn 0.000000 -1.570796 0.000000
v 4.718830 -1.344480 1.889520 0.819608 0.819608 1.000000
vn 0.000000 -1.570797 0.000000
v 4.718830 -1.344480 1.989520 0.819608 0.819608 1.000000
vn 0.000000 -1.570797 0.000000
v 3.718830 -1.344480 1.889520 0.819608 0.819608 1.000000
vn 0.000000 -1.570796 0.000000
v 3.718830 -1.344480 1.989520 0.819608 0.819608 1.000000
vn -1.570796 0.000000 0.000000
v 3.718830 -1.344480 1.889520 0.819608 0.819608 1.000000
vn -1.570796 0.000000 0.000000
v 3.718830 -1.344480 1.989520 0.819608 0.819608 1.000000
vn -1.570796 0.000000 0.000000
v 3.718830 -1.144480 1.889520 0.819608 0.819608 1.000000
vn -1.570796 0.000000 0.000000
v 3.718830 -1.144480 1.989520 0.819608 0.819608 1.000000
# 124 vertices, 0 vertices normals

f 25//25 26//26 5//5
f 25//25 5//5 6//6
f 25//25 6//6 7//7
f 25//25 7//7 28//28
f 27//27 28//28 7//7
f 27//27 7//7 8//8
f 27//27 8//8 9//9
f 27//27 9//9 10//10
f 27//27 10//10 11//11
f 27//27 11//11 12//12
f 27//27 12//12 13//13
f 27//27 13//13 14//14
f 27//27 14//14 15//15
f 27//27 15//15 16//16
f 27//27 16//16 17//17
f 27//27 17//17 18//18
f 27//27 18//18 26//26
f 26//26 18//18 19//19
f 26//26 19//19 20//20
f 26//26 20//20 21//21
f 26//26 21//21 22//22
f 26//26 22//22 23//23
f 26//26 23//23 24//24
f 26//26 24//24 1//1
f 26//26 1//1 2//2
f 26//26 2//2 3//3
f 26//26 3//3 4//4
f 26//26 4//4 5//5
f 41//41 40//40 42//42
f 40//40 39//39 42//42
f 42//42 39//39 43//43
f 39//39 38//38 43//43
f 43//43 38//38 44//44
f 38//38 37//37 44//44
f 44//44 37//37 45//45
f 37//37 36//36 45//45
f 45//45 36//36 46//46
f 36//36 35//35 46//46
f 46//46 35//35 47//47
f 35//35 34//34 47//47
f 47//47 34//34 48//48
f 34//34 33//33 48//48
f 48//48 33//33 49//49
f 33//33 32//32 49//49
f 49//49 32//32 50//50
f 32//32 31//31 50//50
f 50//50 31//31 51//51
f 31//31 30//30 51//51
f 51//51 30//30 52//52
f 30//30 29//29 52//52
f 52//52 29//29 53//53
f 29//29 54//54 53//53
f 67//67 66//66 68//68
f 66//66 65//65 68//68
f 68//68 65//65 69//69
f 65//65 64//64 69//69
f 69//69 64//64 70//70
f 64//64 63//63 70//70
f 70//70 63//63 71//71
f 63//63 62//62 71//71
f 71//71 62//62 72//72
f 62//62 61//61 72//72
f 72//72 61//61 73//73
f 61//61 60//60 73//73
f 73//73 60//60 74//74
f 60//60 59//59 74//74
f 74//74 59//59 75//75
f 59//59 58//58 75//75
f 75//75 58//58 76//76
f 58//58 57//57 76//76
f 76//76 57//57 77//77
f 57//57 56//56 77//77
f 77//77 56//56 78//78
f 56//56 55//55 78//78
f 78//78 55//55 79//79
f 55//55 80//80 79//79
f 99//99 97//97 100//100
f 97//97 96//96 100//100
f 100//100 96//96 101//101
f 96//96 95//95 101//101
f 101//101 95//95 102//102
f 95//95 94//94 102//102
f 102//102 94//94 103//103
f 94//94 93//93 103//103
f 103//103 93//93 104//104
f 93//93 92//92 104//104
f 104//104 92//92 81//81
f 92//92 91//91 81//81
f 81//81 91//91 82//82
f 91//91 90//90 82//82
f 82//82 90//90 83//83
f 90//90 89//89 83//83
f 83//83 89//89 84//84
f 89//89 88//88 84//84
f 84//84 88//88 85//85
f 88//88 87//87 85//85
f 85//85 87//87 86//86
f 97//97 99//99 98//98
f 105//105 106//106 107//107
f 106//106 108//108 107//107
f 109//109 110//110 111//111
f 110//110 112//112 111//111
f 113//113 114//114 115//115
f 114//114 116//116 115//115
f 117//117 118//118 119//119
f 118//118 120//120 119//119
f 121//121 122//122 123//123
f 122//122 124//124 123//123
# 108 faces, 0 coords texture

# End of File
